HIERARCHY
ROOT chen_peiyu:Solving:Hips
{
	OFFSET 0.000000 0.000000 0.000000
	CHANNELS 6 Xposition Yposition Zposition Xrotation Yrotation Zrotation
	JOINT chen_peiyu:Solving:Spine
	{
		OFFSET 0.000000 -11.210929 2.546455
		CHANNELS 6 Xposition Yposition Zposition Xrotation Yrotation Zrotation
		JOINT chen_peiyu:Solving:Spine1
		{
			OFFSET 0.000000 -8.581483 1.513147
			CHANNELS 6 Xposition Yposition Zposition Xrotation Yrotation Zrotation
			JOINT chen_peiyu:Solving:Spine2
			{
				OFFSET 0.000000 -8.680708 0.759466
				CHANNELS 6 Xposition Yposition Zposition Xrotation Yrotation Zrotation
				JOINT chen_peiyu:Solving:Spine3
				{
					OFFSET 0.000000 -8.713865 0.000000
					CHANNELS 6 Xposition Yposition Zposition Xrotation Yrotation Zrotation
					JOINT chen_peiyu:Solving:Neck
					{
						OFFSET 0.000000 -11.203541 -1.120352
						CHANNELS 6 Xposition Yposition Zposition Xrotation Yrotation Zrotation
						JOINT chen_peiyu:Solving:Neck1
						{
							OFFSET 0.000000 -7.996979 -0.699643
							CHANNELS 6 Xposition Yposition Zposition Xrotation Yrotation Zrotation
							JOINT chen_peiyu:Solving:Head
							{
								OFFSET 0.000000 -7.905571 -1.393964
								CHANNELS 6 Xposition Yposition Zposition Xrotation Yrotation Zrotation
								JOINT chen_peiyu:Solving:HeadEnd
								{
									OFFSET 0.000000 -9.728081 0.000003
									CHANNELS 6 Xposition Yposition Zposition Xrotation Yrotation Zrotation
									End Site
									{
										OFFSET 0.000000 -9.728081 0.000002
									}
								}
							}
						}
					}
					JOINT chen_peiyu:Solving:RightShoulder
					{
						OFFSET 0.000000 -8.002529 -5.397107
						CHANNELS 6 Xposition Yposition Zposition Xrotation Yrotation Zrotation
						JOINT chen_peiyu:Solving:RightArm
						{
							OFFSET -20.031555 -0.000008 0.000000
							CHANNELS 6 Xposition Yposition Zposition Xrotation Yrotation Zrotation
							JOINT chen_peiyu:Solving:RightForeArm
							{
								OFFSET -29.298958 -0.000008 0.000000
								CHANNELS 6 Xposition Yposition Zposition Xrotation Yrotation Zrotation
								JOINT chen_peiyu:Solving:RightHand
								{
									OFFSET -23.063095 -0.000008 0.000000
									CHANNELS 6 Xposition Yposition Zposition Xrotation Yrotation Zrotation
									JOINT chen_peiyu:Solving:RightHandThumb1
									{
										OFFSET -3.309830 2.925671 -2.461148
										CHANNELS 6 Xposition Yposition Zposition Xrotation Yrotation Zrotation
										End Site
										{
											OFFSET -4.885818 0.000000 -4.930992
										}
									}
									JOINT chen_peiyu:Solving:RightHandMiddle1
									{
										OFFSET -8.826195 -0.000004 0.056578
										CHANNELS 6 Xposition Yposition Zposition Xrotation Yrotation Zrotation
										End Site
										{
											OFFSET -6.941605 -0.000004 0.000000
										}
									}
								}
							}
						}
					}
					JOINT chen_peiyu:Solving:LeftShoulder
					{
						OFFSET 0.000000 -8.002529 -5.397107
						CHANNELS 6 Xposition Yposition Zposition Xrotation Yrotation Zrotation
						JOINT chen_peiyu:Solving:LeftArm
						{
							OFFSET 20.031555 -0.000008 0.000000
							CHANNELS 6 Xposition Yposition Zposition Xrotation Yrotation Zrotation
							JOINT chen_peiyu:Solving:LeftForeArm
							{
								OFFSET 29.298958 -0.000008 0.000000
								CHANNELS 6 Xposition Yposition Zposition Xrotation Yrotation Zrotation
								JOINT chen_peiyu:Solving:LeftHand
								{
									OFFSET 23.063095 -0.000008 0.000000
									CHANNELS 6 Xposition Yposition Zposition Xrotation Yrotation Zrotation
									JOINT chen_peiyu:Solving:LeftHandThumb1
									{
										OFFSET 3.309830 2.925671 -2.461148
										CHANNELS 6 Xposition Yposition Zposition Xrotation Yrotation Zrotation
										End Site
										{
											OFFSET 4.885818 0.000000 -4.930992
										}
									}
									JOINT chen_peiyu:Solving:LeftHandMiddle1
									{
										OFFSET 8.826195 -0.000004 0.056578
										CHANNELS 6 Xposition Yposition Zposition Xrotation Yrotation Zrotation
										End Site
										{
											OFFSET 6.941605 -0.000004 0.000000
										}
									}
								}
							}
						}
					}
				}
			}
		}
	}
	JOINT chen_peiyu:Solving:RightUpLeg
	{
		OFFSET -8.842906 0.000000 0.000000
		CHANNELS 6 Xposition Yposition Zposition Xrotation Yrotation Zrotation
		JOINT chen_peiyu:Solving:RightLeg
		{
			OFFSET 0.000000 42.445980 -0.000006
			CHANNELS 6 Xposition Yposition Zposition Xrotation Yrotation Zrotation
			JOINT chen_peiyu:Solving:RightFoot
			{
				OFFSET 0.000000 37.362904 -0.000006
				CHANNELS 6 Xposition Yposition Zposition Xrotation Yrotation Zrotation
				JOINT chen_peiyu:Solving:RightForeFoot
				{
					OFFSET 0.000000 3.537643 -0.000000
					CHANNELS 6 Xposition Yposition Zposition Xrotation Yrotation Zrotation
					JOINT chen_peiyu:Solving:RightToeBase
					{
						OFFSET 0.000000 0.000000 -13.854536
						CHANNELS 6 Xposition Yposition Zposition Xrotation Yrotation Zrotation
						JOINT chen_peiyu:Solving:RightToeBaseEnd
						{
							OFFSET 0.000000 0.000000 -3.949363
							CHANNELS 6 Xposition Yposition Zposition Xrotation Yrotation Zrotation
							End Site
							{
								OFFSET 0.000000 -3.949364 0.000000
							}
						}
					}
				}
			}
		}
	}
	JOINT chen_peiyu:Solving:LeftUpLeg
	{
		OFFSET 8.842906 0.000000 0.000000
		CHANNELS 6 Xposition Yposition Zposition Xrotation Yrotation Zrotation
		JOINT chen_peiyu:Solving:LeftLeg
		{
			OFFSET 0.000000 42.445980 -0.000006
			CHANNELS 6 Xposition Yposition Zposition Xrotation Yrotation Zrotation
			JOINT chen_peiyu:Solving:LeftFoot
			{
				OFFSET 0.000000 37.362904 -0.000006
				CHANNELS 6 Xposition Yposition Zposition Xrotation Yrotation Zrotation
				JOINT chen_peiyu:Solving:LeftForeFoot
				{
					OFFSET 0.000000 3.537643 -0.000000
					CHANNELS 6 Xposition Yposition Zposition Xrotation Yrotation Zrotation
					JOINT chen_peiyu:Solving:LeftToeBase
					{
						OFFSET 0.000000 0.000000 -13.854536
						CHANNELS 6 Xposition Yposition Zposition Xrotation Yrotation Zrotation
						JOINT chen_peiyu:Solving:LeftToeBaseEnd
						{
							OFFSET 0.000000 0.000000 -4.185185
							CHANNELS 6 Xposition Yposition Zposition Xrotation Yrotation Zrotation
							End Site
							{
								OFFSET 0.000000 -4.185188 0.000000
							}
						}
					}
				}
			}
		}
	}
}
MOTION
Frames: 4
Frame Time: 0.041667
-8.655702 -117.680191 -88.291740 -68.174311 -66.987046 -160.903903 -0.000000 -11.210932 2.546440 15.099477 1.795025 1.102163 0.000007 -8.581483 1.513139 4.008358 0.830928 -0.797803 0.000015 -8.680708 0.759466 -4.585425 13.800782 -2.066733 -0.000010 -8.713876 0.000002 -2.311609 2.477026 -1.156752 -0.000009 -11.203511 -1.120360 5.337644 19.952828 3.197324 0.000002 -7.996978 -0.699649 11.891566 35.895462 -10.120356 -0.000007 -7.905526 -1.393944 15.120220 2.969696 -7.318030 0.000005 -9.728081 -0.000033 0.000004 0.000002 -0.000001 -0.000012 -8.002537 -5.397113 -0.000004 17.841583 -2.657574 -20.031546 -0.000008 -0.000000 5.233825 -22.996081 -78.665345 -29.298971 -0.000008 -0.000003 12.357603 -23.476885 4.988205 -23.063093 0.000005 0.000001 -2.105110 10.077722 11.863327 -3.309796 2.925699 -2.461159 0.000005 0.000009 0.000004 -8.826183 0.000022 0.056568 0.000001 -0.000001 0.000004 -0.000012 -8.002533 -5.397114 -0.000008 -6.381000 -16.413745 20.031507 0.000012 0.000001 -27.911343 45.600952 106.476673 29.298962 0.000013 0.000002 11.275652 12.104464 -2.394085 23.063082 0.000004 0.000014 0.097930 -1.303799 4.295809 3.309845 2.925678 -2.461163 0.000002 0.000007 0.000001 8.826217 0.000015 0.056559 -0.000005 -0.000003 -0.000001 -8.842905 -0.000005 -0.000012 -15.975801 -20.938310 1.218034 0.000016 42.445965 -0.000020 19.863117 0.000001 0.000001 0.000003 37.362888 -0.000010 12.816320 -33.032482 5.765459 -0.000006 3.537659 0.000003 -0.000000 0.000002 -0.000000 -0.000001 0.000001 -13.854542 -22.823716 -0.000005 -0.000001 -0.000007 -0.000008 -3.949377 -0.000001 0.000001 -0.000000 8.842896 0.000008 -0.000008 2.083053 -48.559520 -1.086026 -0.000000 42.445976 -0.000013 29.786626 -0.000003 -0.000001 0.000004 37.362900 -0.000016 -4.512486 -24.353801 -2.138560 0.000001 3.537628 -0.000011 -0.000003 0.000000 -0.000001 -0.000001 0.000009 -13.854526 -2.100060 -0.000000 -0.000002 -0.000001 0.000022 -4.185174 -0.000001 0.000000 -0.000001 
-8.629371 -117.658768 -88.290619 -68.197096 -66.963571 -160.934925 -0.000013 -11.210921 2.546451 15.109342 1.796347 1.104377 0.000000 -8.581473 1.513148 4.009141 0.829841 -0.791768 -0.000013 -8.680702 0.759458 -4.593007 13.789502 -2.067833 0.000012 -8.713881 -0.000001 -2.323408 2.474655 -1.150590 0.000012 -11.203567 -1.120356 5.315038 19.946403 3.241979 0.000012 -7.996968 -0.699655 11.911666 35.914323 -10.152395 0.000011 -7.905550 -1.393947 15.116754 2.972128 -7.332710 0.000004 -9.728081 -0.000016 0.000001 -0.000004 0.000002 0.000004 -8.002533 -5.397106 -0.000006 17.811173 -2.654062 -20.031534 0.000007 0.000001 5.233359 -22.972795 -78.678493 -29.298969 -0.000022 -0.000003 12.396844 -23.434866 4.996064 -23.063084 0.000003 0.000004 -2.113942 10.128983 11.853744 -3.309834 2.925674 -2.461157 -0.000001 0.000002 -0.000005 -8.826240 0.000016 0.056572 -0.000004 0.000001 0.000001 0.000011 -8.002529 -5.397108 -0.000009 -6.400038 -16.394785 20.031532 0.000016 -0.000001 -27.970540 46.032418 106.464706 29.298977 -0.000030 0.000004 10.804975 12.266712 -2.322019 23.063076 0.000007 -0.000011 0.099618 -1.343882 4.239701 3.309824 2.925676 -2.461170 0.000004 0.000002 0.000002 8.826217 0.000001 0.056571 -0.000001 0.000001 -0.000001 -8.842929 0.000011 0.000005 -15.975688 -20.917224 1.216028 -0.000012 42.445972 -0.000020 19.886108 0.000004 -0.000001 -0.000003 37.362904 -0.000012 12.781141 -33.029412 5.735327 0.000011 3.537659 -0.000010 -0.000000 -0.000003 -0.000000 -0.000008 0.000005 -13.854568 -22.791318 -0.000005 -0.000003 -0.000006 0.000022 -3.949366 -0.000001 0.000002 -0.000000 8.842906 0.000013 -0.000008 2.079205 -48.550296 -1.105267 -0.000001 42.445992 0.000001 29.784840 -0.000000 -0.000002 0.000011 37.362896 -0.000005 -4.533565 -24.347478 -2.095870 -0.000000 3.537628 0.000002 -0.000004 0.000000 0.000000 -0.000001 0.000003 -13.854546 -2.041551 -0.000001 -0.000001 -0.000001 0.000009 -4.185187 0.000005 0.000000 0.000002 
-8.602831 -117.639603 -88.287689 -68.200129 -66.948032 -160.954801 0.000011 -11.210914 2.546453 15.111290 1.795482 1.119011 0.000004 -8.581478 1.513149 4.015386 0.829397 -0.787494 -0.000008 -8.680727 0.759462 -4.591476 13.777572 -2.071810 -0.000011 -8.713862 -0.000003 -2.329703 2.471280 -1.150684 -0.000010 -11.203555 -1.120356 5.306508 19.944267 3.249621 0.000011 -7.996984 -0.699652 11.908047 35.947006 -10.153500 0.000017 -7.905580 -1.393960 15.104750 2.974543 -7.331575 0.000000 -9.728073 0.000009 -0.000000 0.000002 0.000000 0.000005 -8.002552 -5.397107 -0.000000 17.780774 -2.634244 -20.031534 -0.000008 0.000003 5.246005 -22.943843 -78.705909 -29.298994 -0.000008 -0.000007 12.470435 -23.451945 5.029955 -23.063086 -0.000011 -0.000005 -2.129990 10.178653 11.885199 -3.309826 2.925678 -2.461151 -0.000002 -0.000005 0.000005 -8.826213 -0.000002 0.056589 -0.000001 -0.000000 0.000006 -0.000002 -8.002548 -5.397106 -0.000005 -6.324337 -16.471633 20.031527 0.000021 0.000007 -27.585362 44.121827 106.361092 29.298998 -0.000012 0.000005 12.516524 11.612460 -2.558649 23.063078 0.000009 -0.000004 0.079831 -0.947816 4.814761 3.309828 2.925657 -2.461173 0.000002 0.000002 -0.000002 8.826221 -0.000004 0.056551 -0.000001 -0.000000 -0.000004 -8.842912 0.000003 0.000003 -15.970217 -20.908162 1.221783 -0.000006 42.445992 -0.000013 19.908874 0.000003 -0.000004 -0.000002 37.362915 -0.000005 12.743273 -33.033650 5.685466 -0.000001 3.537659 -0.000019 -0.000001 0.000002 -0.000001 -0.000002 -0.000014 -13.854560 -22.745071 -0.000004 -0.000001 0.000002 0.000000 -3.949365 0.000000 0.000000 -0.000001 8.842904 0.000007 0.000005 2.090527 -48.550982 -1.113341 -0.000009 42.445995 0.000040 29.786346 0.000002 -0.000003 0.000008 37.362915 0.000007 -4.527089 -24.313595 -2.113756 0.000000 3.537643 -0.000019 -0.000003 0.000000 -0.000002 0.000000 -0.000010 -13.854521 -2.079142 -0.000001 -0.000002 -0.000002 0.000008 -4.185197 0.000000 -0.000001 -0.000001 
-8.575747 -117.616158 -88.285255 -68.222771 -66.928689 -160.984198 -0.000003 -11.210911 2.546464 15.113006 1.793981 1.122021 -0.000006 -8.581478 1.513149 4.013966 0.828410 -0.783976 -0.000007 -8.680702 0.759469 -4.589678 13.752526 -2.065560 0.000006 -8.713864 -0.000002 -2.330494 2.467672 -1.149961 -0.000009 -11.203528 -1.120347 5.282245 19.945623 3.250444 -0.000014 -7.996964 -0.699628 11.928385 35.984531 -10.151564 0.000006 -7.905534 -1.393968 15.104989 2.972531 -7.327475 0.000002 -9.728058 -0.000015 -0.000000 -0.000001 0.000005 -0.000008 -8.002514 -5.397099 -0.000003 17.784409 -2.607115 -20.031551 -0.000003 -0.000001 5.224649 -23.013853 -78.739869 -29.298952 0.000001 -0.000009 12.518744 -23.399598 5.039391 -23.063107 0.000001 0.000008 -2.147062 10.198488 11.955437 -3.309803 2.925672 -2.461150 0.000000 0.000003 -0.000004 -8.826201 0.000015 0.056572 0.000001 0.000001 0.000001 -0.000008 -8.002514 -5.397099 -0.000006 -6.265447 -16.508204 20.031555 0.000005 0.000001 -27.402693 43.316988 106.283563 29.298965 -0.000011 -0.000010 13.193174 11.352399 -2.642034 23.063103 0.000029 -0.000006 0.068623 -0.755693 5.188549 3.309809 2.925655 -2.461140 0.000002 -0.000002 0.000003 8.826172 0.000013 0.056569 -0.000000 -0.000002 0.000000 -8.842891 0.000010 -0.000001 -15.978712 -20.897140 1.213973 0.000022 42.445976 0.000012 19.937838 -0.000001 -0.000002 -0.000003 37.362900 0.000007 12.719117 -33.036252 5.665311 -0.000000 3.537643 0.000011 -0.000000 0.000000 0.000002 0.000001 -0.000016 -13.854536 -22.671677 -0.000003 -0.000001 -0.000006 0.000007 -3.949373 -0.000001 -0.000000 0.000000 8.842882 0.000017 0.000011 2.094082 -48.564872 -1.135686 -0.000002 42.445984 -0.000012 29.775486 0.000002 -0.000004 0.000003 37.362900 0.000003 -4.539792 -24.255935 -2.095387 0.000002 3.537651 -0.000007 -0.000001 0.000001 -0.000000 -0.000006 0.000010 -13.854540 -2.057970 -0.000001 -0.000001 -0.000002 -0.000000 -4.185186 0.000000 0.000000 -0.000001 
